# xmcd
#
# Track frame offsets:
#	150
#	24347
#	38452
#	67632
#	87327
#	101342
#	117200
#	139222
#
# Disc length: 2115 seconds
#
# Revision: 1
# Processed by: cddbd v1.5.2PL0 Copyright (c) Steve Scherf et al.
# Submitted via: audiograbber 1.83.01
#
DISCID=55084108
DTITLE=John Marshall Band - Compared To What
DYEAR=1900
DGENRE=
TTITLE0=The Guvner
TTITLE1=Down Right Dirty - Rotton Shame
TTITLE2=God Bless The Child
TTITLE3=Inner City Blues
TTITLE4=Hallelujah - I Love Her So
TTITLE5=Hand Jive
TTITLE6=ADOM - Another Dirty Old Man
TTITLE7=Compared to What
EXTD=
EXTT0=
EXTT1=
EXTT2=
EXTT3=
EXTT4=
EXTT5=
EXTT6=
EXTT7=
PLAYORDER=
